# xmcd CD database file
#
# Track frame offsets:
#	150
#	15373
#	33392
#	44932
#	60124
#	71227
#	86707
#	102738
#	114737
#	128038
#	149866
#	163175
#	173845
#	190732
#	204512
#	219024
#	236301
#
# Disc length: 3345 seconds
#
# Revision: 0
# Processed by: cddbd v1.5.2PL0 Copyright (c) Steve Scherf et al.
# Submitted via: CDex 1.51
#
DISCID=f70d0f11
DTITLE=Götz Alsmann - Mein Geheimnis
DYEAR=2007
DGENRE=Jazz
TTITLE0=Der blaue Montag
TTITLE1=Wenn ich in Stimmung bin
TTITLE2=Kokettier' nicht mit mir
TTITLE3=Indiskret 
TTITLE4=Hey, hey, grosses Mädchen (Hey, hey big boy)
TTITLE5=Irgendwo, irgendwann
TTITLE6=Ein Traum
TTITLE7=Vorsicht, vorsicht
TTITLE8=Letkiss 
TTITLE9=Bei dir war es immer so schön
TTITLE10=Ein Gläschen Wein und du
TTITLE11=Ausgerechnet du
TTITLE12=Weisst du es noch
TTITLE13=Wie immer
TTITLE14=Wenn es Frühling wird
TTITLE15=Du bist mein Geheimnis
TTITLE16=Zugnovelle 
EXTD=YEAR: 2007
EXTT0=
EXTT1=
EXTT2=
EXTT3=
EXTT4=
EXTT5=
EXTT6=
EXTT7=
EXTT8=
EXTT9=
EXTT10=
EXTT11=
EXTT12=
EXTT13=
EXTT14=
EXTT15=
EXTT16=
PLAYORDER=
